<mxfile host="app.diagrams.net" modified="2023-04-27T12:39:15.969Z" agent="Mozilla/5.0 (Windows NT 10.0; Win64; x64) AppleWebKit/537.36 (KHTML, like Gecko) Chrome/111.0.0.0 Safari/537.36" etag="dUbW8XXPa9hszWmlrMOp" version="21.2.2" type="github">
  <diagram name="第 1 页" id="gODlSswPUVdLmv0uN2Mu">
    <mxGraphModel dx="1562" dy="2027" grid="1" gridSize="10" guides="0" tooltips="1" connect="1" arrows="1" fold="1" page="1" pageScale="1" pageWidth="827" pageHeight="1169" math="0" shadow="0">
      <root>
        <mxCell id="0" />
        <mxCell id="1" parent="0" />
        <mxCell id="m7EFyyzNu4Z0yUVCmoOw-4" value="" style="shape=umlLifeline;perimeter=lifelinePerimeter;whiteSpace=wrap;html=1;container=1;dropTarget=0;collapsible=0;recursiveResize=0;outlineConnect=0;portConstraint=eastwest;newEdgeStyle={&quot;edgeStyle&quot;:&quot;elbowEdgeStyle&quot;,&quot;elbow&quot;:&quot;vertical&quot;,&quot;curved&quot;:0,&quot;rounded&quot;:0};" vertex="1" parent="1">
          <mxGeometry x="530" y="160" width="100" height="970" as="geometry" />
        </mxCell>
        <mxCell id="m7EFyyzNu4Z0yUVCmoOw-5" value="" style="html=1;points=[];perimeter=orthogonalPerimeter;outlineConnect=0;targetShapes=umlLifeline;portConstraint=eastwest;newEdgeStyle={&quot;edgeStyle&quot;:&quot;elbowEdgeStyle&quot;,&quot;elbow&quot;:&quot;vertical&quot;,&quot;curved&quot;:0,&quot;rounded&quot;:0};" vertex="1" parent="m7EFyyzNu4Z0yUVCmoOw-4">
          <mxGeometry x="46" y="110" width="10" height="40" as="geometry" />
        </mxCell>
        <mxCell id="m7EFyyzNu4Z0yUVCmoOw-6" value="启动 CanalLogPositionManager" style="html=1;align=left;spacingLeft=2;endArrow=block;rounded=0;edgeStyle=orthogonalEdgeStyle;curved=0;rounded=0;" edge="1" target="m7EFyyzNu4Z0yUVCmoOw-5" parent="m7EFyyzNu4Z0yUVCmoOw-4">
          <mxGeometry relative="1" as="geometry">
            <mxPoint x="51" y="90" as="sourcePoint" />
            <Array as="points">
              <mxPoint x="81" y="120" />
            </Array>
          </mxGeometry>
        </mxCell>
        <mxCell id="m7EFyyzNu4Z0yUVCmoOw-13" value="" style="html=1;points=[];perimeter=orthogonalPerimeter;outlineConnect=0;targetShapes=umlLifeline;portConstraint=eastwest;newEdgeStyle={&quot;edgeStyle&quot;:&quot;elbowEdgeStyle&quot;,&quot;elbow&quot;:&quot;vertical&quot;,&quot;curved&quot;:0,&quot;rounded&quot;:0};" vertex="1" parent="m7EFyyzNu4Z0yUVCmoOw-4">
          <mxGeometry x="46" y="200" width="10" height="40" as="geometry" />
        </mxCell>
        <mxCell id="m7EFyyzNu4Z0yUVCmoOw-14" value="启动 CanalHAController。（如果要解析mysql binlog，haController 类型是：HeartBeatHAController" style="html=1;align=left;spacingLeft=2;endArrow=block;rounded=0;edgeStyle=orthogonalEdgeStyle;curved=0;rounded=0;" edge="1" target="m7EFyyzNu4Z0yUVCmoOw-13" parent="m7EFyyzNu4Z0yUVCmoOw-4">
          <mxGeometry relative="1" as="geometry">
            <mxPoint x="51" y="180" as="sourcePoint" />
            <Array as="points">
              <mxPoint x="81" y="210" />
            </Array>
          </mxGeometry>
        </mxCell>
        <mxCell id="m7EFyyzNu4Z0yUVCmoOw-17" value="" style="html=1;points=[];perimeter=orthogonalPerimeter;outlineConnect=0;targetShapes=umlLifeline;portConstraint=eastwest;newEdgeStyle={&quot;edgeStyle&quot;:&quot;elbowEdgeStyle&quot;,&quot;elbow&quot;:&quot;vertical&quot;,&quot;curved&quot;:0,&quot;rounded&quot;:0};" vertex="1" parent="m7EFyyzNu4Z0yUVCmoOw-4">
          <mxGeometry x="47" y="370" width="10" height="40" as="geometry" />
        </mxCell>
        <mxCell id="m7EFyyzNu4Z0yUVCmoOw-18" value="设置 EventTransactionBuffer 大小，并启动" style="html=1;align=left;spacingLeft=2;endArrow=block;rounded=0;edgeStyle=orthogonalEdgeStyle;curved=0;rounded=0;" edge="1" target="m7EFyyzNu4Z0yUVCmoOw-17" parent="m7EFyyzNu4Z0yUVCmoOw-4">
          <mxGeometry relative="1" as="geometry">
            <mxPoint x="52" y="350" as="sourcePoint" />
            <Array as="points">
              <mxPoint x="82" y="380" />
            </Array>
          </mxGeometry>
        </mxCell>
        <mxCell id="m7EFyyzNu4Z0yUVCmoOw-22" value="" style="html=1;points=[];perimeter=orthogonalPerimeter;outlineConnect=0;targetShapes=umlLifeline;portConstraint=eastwest;newEdgeStyle={&quot;edgeStyle&quot;:&quot;elbowEdgeStyle&quot;,&quot;elbow&quot;:&quot;vertical&quot;,&quot;curved&quot;:0,&quot;rounded&quot;:0};" vertex="1" parent="m7EFyyzNu4Z0yUVCmoOw-4">
          <mxGeometry x="51" y="470" width="10" height="40" as="geometry" />
        </mxCell>
        <mxCell id="m7EFyyzNu4Z0yUVCmoOw-23" value="启动 BinlogParser。（类型：LogEventConvert，会将 binlog 原生 event 解析为 Entry）" style="html=1;align=left;spacingLeft=2;endArrow=block;rounded=0;edgeStyle=orthogonalEdgeStyle;curved=0;rounded=0;" edge="1" target="m7EFyyzNu4Z0yUVCmoOw-22" parent="m7EFyyzNu4Z0yUVCmoOw-4">
          <mxGeometry relative="1" as="geometry">
            <mxPoint x="56" y="450" as="sourcePoint" />
            <Array as="points">
              <mxPoint x="86" y="480" />
            </Array>
          </mxGeometry>
        </mxCell>
        <mxCell id="m7EFyyzNu4Z0yUVCmoOw-29" value="" style="html=1;points=[];perimeter=orthogonalPerimeter;outlineConnect=0;targetShapes=umlLifeline;portConstraint=eastwest;newEdgeStyle={&quot;edgeStyle&quot;:&quot;elbowEdgeStyle&quot;,&quot;elbow&quot;:&quot;vertical&quot;,&quot;curved&quot;:0,&quot;rounded&quot;:0};fillColor=#b0e3e6;strokeColor=#0e8088;" vertex="1" parent="m7EFyyzNu4Z0yUVCmoOw-4">
          <mxGeometry x="46" y="570" width="10" height="305" as="geometry" />
        </mxCell>
        <mxCell id="m7EFyyzNu4Z0yUVCmoOw-30" value="启动一个解析 binlog 的线程" style="html=1;align=left;spacingLeft=2;endArrow=block;rounded=0;edgeStyle=orthogonalEdgeStyle;curved=0;rounded=0;" edge="1" parent="m7EFyyzNu4Z0yUVCmoOw-4">
          <mxGeometry relative="1" as="geometry">
            <mxPoint x="51" y="567" as="sourcePoint" />
            <Array as="points">
              <mxPoint x="81" y="597" />
            </Array>
            <mxPoint x="56" y="597" as="targetPoint" />
          </mxGeometry>
        </mxCell>
        <mxCell id="m7EFyyzNu4Z0yUVCmoOw-33" value="启动一个 TimerTask, 每隔 3s 往 EventSink 中 sink 一个 HeartBeat 类型的 Entry" style="html=1;align=left;spacingLeft=2;endArrow=block;rounded=0;edgeStyle=orthogonalEdgeStyle;curved=0;rounded=0;" edge="1" parent="m7EFyyzNu4Z0yUVCmoOw-4">
          <mxGeometry relative="1" as="geometry">
            <mxPoint x="56" y="630" as="sourcePoint" />
            <Array as="points">
              <mxPoint x="86" y="660" />
            </Array>
            <mxPoint x="61" y="660" as="targetPoint" />
          </mxGeometry>
        </mxCell>
        <mxCell id="m7EFyyzNu4Z0yUVCmoOw-49" value="连接 mysql" style="html=1;align=left;spacingLeft=2;endArrow=block;rounded=0;edgeStyle=orthogonalEdgeStyle;curved=0;rounded=0;" edge="1" parent="m7EFyyzNu4Z0yUVCmoOw-4">
          <mxGeometry relative="1" as="geometry">
            <mxPoint x="57" y="690" as="sourcePoint" />
            <Array as="points">
              <mxPoint x="87" y="720" />
            </Array>
            <mxPoint x="62" y="720" as="targetPoint" />
          </mxGeometry>
        </mxCell>
        <mxCell id="m7EFyyzNu4Z0yUVCmoOw-53" value="找 binlog 起始解析位置" style="html=1;align=left;spacingLeft=2;endArrow=block;rounded=0;edgeStyle=orthogonalEdgeStyle;curved=0;rounded=0;" edge="1" parent="m7EFyyzNu4Z0yUVCmoOw-4">
          <mxGeometry relative="1" as="geometry">
            <mxPoint x="54" y="750" as="sourcePoint" />
            <Array as="points">
              <mxPoint x="84" y="780" />
            </Array>
            <mxPoint x="59" y="780" as="targetPoint" />
          </mxGeometry>
        </mxCell>
        <mxCell id="m7EFyyzNu4Z0yUVCmoOw-56" value="开始从 mysql dump 日志，解析后会放入 EventTransactionBuffer 中" style="html=1;align=left;spacingLeft=2;endArrow=block;rounded=0;edgeStyle=orthogonalEdgeStyle;curved=0;rounded=0;" edge="1" parent="m7EFyyzNu4Z0yUVCmoOw-4">
          <mxGeometry relative="1" as="geometry">
            <mxPoint x="58" y="819" as="sourcePoint" />
            <Array as="points">
              <mxPoint x="88" y="849" />
            </Array>
            <mxPoint x="63" y="849" as="targetPoint" />
          </mxGeometry>
        </mxCell>
        <mxCell id="m7EFyyzNu4Z0yUVCmoOw-26" value="AbstractEventParser#start()" style="text;html=1;strokeColor=none;fillColor=none;align=center;verticalAlign=middle;whiteSpace=wrap;rounded=0;" vertex="1" parent="1">
          <mxGeometry x="270" y="760" width="60" height="30" as="geometry" />
        </mxCell>
        <mxCell id="m7EFyyzNu4Z0yUVCmoOw-31" value="parseThread" style="text;align=center;fontStyle=1;verticalAlign=middle;spacingLeft=3;spacingRight=3;strokeColor=none;rotatable=0;points=[[0,0.5],[1,0.5]];portConstraint=eastwest;html=1;" vertex="1" parent="1">
          <mxGeometry x="480" y="850" width="80" height="26" as="geometry" />
        </mxCell>
        <mxCell id="m7EFyyzNu4Z0yUVCmoOw-35" style="edgeStyle=orthogonalEdgeStyle;rounded=0;orthogonalLoop=1;jettySize=auto;html=1;startArrow=classicThin;startFill=1;endArrow=none;endFill=0;" edge="1" parent="1" source="m7EFyyzNu4Z0yUVCmoOw-34">
          <mxGeometry relative="1" as="geometry">
            <mxPoint x="1060" y="800" as="targetPoint" />
          </mxGeometry>
        </mxCell>
        <mxCell id="m7EFyyzNu4Z0yUVCmoOw-34" value="EntryEventSink" style="rounded=0;whiteSpace=wrap;html=1;" vertex="1" parent="1">
          <mxGeometry x="1170" y="770" width="120" height="60" as="geometry" />
        </mxCell>
        <mxCell id="m7EFyyzNu4Z0yUVCmoOw-43" value="1. canalInstance 什么时候启动？&lt;br&gt;&lt;span style=&quot;white-space: pre;&quot;&gt; &lt;/span&gt;- CanalContoller.start() 方法会启动那些配置 canal.instance.${destination}.lazy = false 的 canalInstance" style="text;html=1;strokeColor=none;fillColor=none;align=left;verticalAlign=middle;whiteSpace=wrap;rounded=0;" vertex="1" parent="1">
          <mxGeometry x="40" y="-50" width="640" height="160" as="geometry" />
        </mxCell>
        <mxCell id="m7EFyyzNu4Z0yUVCmoOw-44" value="AbstractCanalInstance.beforeStartEventParser()" style="text;html=1;strokeColor=none;fillColor=none;align=center;verticalAlign=middle;whiteSpace=wrap;rounded=0;" vertex="1" parent="1">
          <mxGeometry x="240" y="310" width="60" height="30" as="geometry" />
        </mxCell>
        <mxCell id="m7EFyyzNu4Z0yUVCmoOw-45" value="" style="shape=curlyBracket;whiteSpace=wrap;html=1;rounded=1;labelPosition=left;verticalLabelPosition=middle;align=right;verticalAlign=middle;" vertex="1" parent="1">
          <mxGeometry x="430" y="240" width="20" height="170" as="geometry" />
        </mxCell>
        <mxCell id="m7EFyyzNu4Z0yUVCmoOw-46" value="" style="shape=curlyBracket;whiteSpace=wrap;html=1;rounded=1;labelPosition=left;verticalLabelPosition=middle;align=right;verticalAlign=middle;" vertex="1" parent="1">
          <mxGeometry x="410" y="520" width="20" height="520" as="geometry" />
        </mxCell>
        <mxCell id="m7EFyyzNu4Z0yUVCmoOw-54" value="- 如果在 instance.properties 中配置了要解析的 binlog，比如配置了解析的 binlog 文件名、位点、gtid 值，则根据配置的位点信息解析&lt;br&gt;- 如果没有配置，canal 会执行 show master status，从这个命令返回的位点开始解析" style="text;html=1;strokeColor=none;fillColor=none;align=left;verticalAlign=middle;whiteSpace=wrap;rounded=0;" vertex="1" parent="1">
          <mxGeometry x="780" y="900" width="450" height="40" as="geometry" />
        </mxCell>
        <mxCell id="m7EFyyzNu4Z0yUVCmoOw-58" value="1. 解析过程，LogDecoder 将接受到字节流解析为 LogEvent 对象&lt;br&gt;2. 解析方式有并行、串行。可以配置" style="text;html=1;strokeColor=none;fillColor=none;align=left;verticalAlign=middle;whiteSpace=wrap;rounded=0;" vertex="1" parent="1">
          <mxGeometry x="790" y="1010" width="380" height="30" as="geometry" />
        </mxCell>
      </root>
    </mxGraphModel>
  </diagram>
</mxfile>
